<svg xmlns="http://www.w3.org/2000/svg" width="140" height="140" fill="none" viewBox="0 0 140 140"><g clip-path="url(#a)"><path fill="#ffc000" d="M140 0H0v140h140z"/><path fill="#0050a6" d="M114.215 55.842c0-.293-.126-.419-.424-.419h-4.96c-.29 0-.415.126-.415.419V79.69c0 4.287 1.643 5.025 5.433 5.025.115 0 .21-.013.298-.103.085-.08.068-.304.068-.304v-28.47zM38.251 84.717c-.295 0-.418-.126-.418-.422V68.647q-.002-.25-.249-.25H36.33c-.29 0-.41-.122-.41-.418v-3.464c0-.287.12-.416.41-.416h1.255c.164 0 .249-.085.249-.246v-1.46c0-4.884 2.256-6.97 7.093-6.97h3.147c.293 0 .421.126.421.421v3.768c0 .295-.125.416-.42.416H45.93c-1.84 0-2.29.46-2.29 2.174v1.654q0 .246.245.246h2.663c.29 0 .419.129.419.416v3.464c0 .295-.129.418-.419.418h-2.663q-.246-.001-.246.25v15.648c0 .295-.131.421-.421.421h-4.963zm-10.841 0c-.29 0-.419-.126-.419-.422V64.518c0-.287.129-.416.419-.416h5.006c.29 0 .419.129.419.416v19.777c0 .298-.129.421-.419.421zm0-24.725c-.29 0-.419-.123-.419-.413v-3.737c0-.293.129-.419.419-.419h5.006c.29 0 .419.126.419.419v3.737c0 .293-.129.413-.419.413zm42.431 19.051c-.418-1.214-.574-2.844-.574-4.846 0-2.001.156-3.63.574-4.837 1.17-3.716 4.384-5.72 8.728-5.72 3.334 0 6.13 1.507 7.632 3.798.123.21.123.418-.082.588l-3.634 2.373c-.249.167-.457.129-.62-.082-.84-1.167-1.923-1.752-3.216-1.752-1.633 0-2.669.71-3.128 2.168-.252.708-.375 1.881-.375 3.462 0 1.58.123 2.753.375 3.467.459 1.457 1.498 2.168 3.128 2.168 1.293 0 2.373-.582 3.215-1.75.164-.208.372-.251.621-.085l3.634 2.38c.205.16.205.371.082.584-1.501 2.29-4.298 3.796-7.632 3.796-4.344 0-7.557-2.005-8.728-5.715m29.901-6.967c.17 0 .243-.088.249-.252q0-.817-.21-1.504c-.46-1.47-1.524-2.21-3.28-2.21-1.553 0-3.032.737-3.483 2.21a5.1 5.1 0 0 0-.205 1.504c0 .164.08.252.243.252zm-12.02 6.929c-.457-1.425-.66-3.014-.66-4.807s.156-3.503.618-4.837c1.17-3.632 4.384-5.72 8.68-5.72s7.554 2.132 8.728 5.679c.451 1.413.533 3.5.533 6.218 0 .29-.164.412-.462.412h-11.99c-.167 0-.25.088-.25.25.047.418.02.792.143 1.123.541 1.797 1.957 2.672 4.178 2.674 1.616.003 2.906-.508 3.716-1.072.741-.516.727-.697 1.146-.36l3.106 2.228c.281.202.251.374.041.58-2.128 2.255-4.966 3.382-8.594 3.382-4.548 0-7.763-2.089-8.93-5.756m-26.469-6.923c.169 0 .251-.088.251-.252q.002-.817-.21-1.504c-.457-1.47-1.52-2.21-3.27-2.21-1.568 0-3.025.74-3.484 2.21q-.213.687-.211 1.504c0 .164.08.252.252.252zm-12.02 6.929c-.455-1.425-.66-3.014-.66-4.807s.159-3.503.62-4.837c1.171-3.632 4.384-5.72 8.68-5.72s7.552 2.132 8.72 5.679c.456 1.413.538 3.5.538 6.218 0 .29-.164.412-.456.412H54.682c-.164 0-.243.088-.243.25.032.418.016.792.142 1.123.538 1.797 1.955 2.672 4.172 2.674 1.625.003 2.91-.508 3.725-1.072.738-.516.719-.686 1.14-.36l3.106 2.228c.276.202.249.374.047.58-2.133 2.255-4.966 3.382-8.594 3.382-4.556 0-7.771-2.089-8.94-5.756m73.37-23.154c0-.293-.126-.419-.424-.419h-4.966c-.289 0-.415.126-.415.419V79.69c0 4.287 1.646 5.025 5.427 5.025.118 0 .211-.013.304-.103.079-.08.071-.304.071-.304v-28.47zm-99.559 0c0-.293-.126-.419-.424-.419h-4.96c-.29 0-.416.126-.416.419V79.69c0 4.287 1.644 5.025 5.434 5.025.115 0 .21-.013.298-.103.085-.08.068-.304.068-.304v-28.47z"/></g><defs><clipPath id="a"><rect width="140" height="140" fill="#fff" rx="30"/></clipPath></defs></svg>