<svg xmlns="http://www.w3.org/2000/svg" width="138" height="138" fill="none" viewBox="0 0 138 138"><rect width="74" height="74" x="31" y="32" fill="#ffc40c" rx="15"/><path stroke="#ffc40c" stroke-width="4" d="M112 79c1.861 0 2.792 0 3.545-.245a5 5 0 0 0 3.21-3.21C119 74.792 119 73.861 119 72v-6c0-1.861 0-2.792-.245-3.545a5 5 0 0 0-3.21-3.21C114.792 59 113.861 59 112 59M40 26.059l.591-4.788c1.147-9.176 1.72-13.764 4.84-16.517S53.174 2 62.42 2h10.16c9.247 0 13.871 0 16.99 2.754 3.12 2.753 3.693 7.341 4.84 16.517l.59 4.616m0 86.226-.591 4.616c-1.147 9.176-1.72 13.764-4.84 16.517S81.826 136 72.58 136H62.42c-9.247 0-13.871 0-16.99-2.754-3.12-2.753-3.693-7.341-4.84-16.517l-.59-4.788M64 113h8c18.856 0 28.284 0 34.142-5.858S112 91.856 112 73v-8c0-18.856 0-28.284-5.858-34.142S90.856 25 72 25h-8c-18.856 0-28.284 0-34.142 5.858S24 46.144 24 65v8c0 18.856 0 28.284 5.858 34.142S45.144 113 64 113Z"/><path stroke="#0d4ba0" stroke-linecap="round" stroke-linejoin="round" stroke-width="4" d="m62 69.5 5 4.5 10-9"/><path stroke="#0d4ba0" stroke-linecap="round" stroke-linejoin="round" stroke-width="4" d="M46 85.286V62.214L57.968 50H88.34c.706 0 1.382.286 1.881.795s.779 1.2.779 1.92v32.57c0 .72-.28 1.411-.779 1.92a2.63 2.63 0 0 1-1.88.795H48.66a2.63 2.63 0 0 1-1.881-.795 2.74 2.74 0 0 1-.779-1.92"/></svg>