<svg xmlns="http://www.w3.org/2000/svg" width="342" height="100" fill="none" viewBox="0 0 342 100"><path fill="#ffc40d" d="M37.484 31.119h59.838a6.441 6.441 0 0 0 0-12.869H28.853a6.441 6.441 0 1 1 0-12.868h256.879a45.046 45.046 0 0 1 31.374 76.628 45.05 45.05 0 0 1-31.374 13.449H47.595a6.44 6.44 0 0 1 0-12.868h15.216a6.44 6.44 0 1 0 0-12.868H17.718a6.44 6.44 0 1 1 0-12.868h62.487a6.44 6.44 0 0 0 0-12.868H37.484a6.44 6.44 0 1 1 0-12.869"/><path fill="#0d4aa1" d="m124.093 68.723-12.037-36.979c-.277-.914.168-1.504 1.131-1.504h5.682a1.42 1.42 0 0 1 1.505 1.107l8.871 29.408 8.92-29.408a1.435 1.435 0 0 1 1.517-1.107h5.669c.963 0 1.421.59 1.132 1.504l-12.038 36.98a1.49 1.49 0 0 1-1.516 1.119h-7.295a1.466 1.466 0 0 1-1.505-1.12m42.131-28.877a10.17 10.17 0 0 1 9.702 6.505c.499 1.295.729 2.677.675 4.063a10.377 10.377 0 0 1-20.753 0 10.175 10.175 0 0 1 10.376-10.568m0 30.755a20.187 20.187 0 1 0-20.259-20.187 20.04 20.04 0 0 0 5.892 14.347 20.02 20.02 0 0 0 14.367 5.84m36.979-20.186a37.43 37.43 0 0 0-5.802-20.187h11.183a47.5 47.5 0 0 1 0 40.373h-11.183a37.4 37.4 0 0 0 5.802-20.187"/><path fill="#0d4aa1" d="M179.08 30.228h14.072a33.86 33.86 0 0 1 0 40.373H179.08a23.7 23.7 0 0 0 10.834-20.187 23.73 23.73 0 0 0-10.834-20.186"/><path fill="#fff" d="M243.119 64.366v4.815a1.2 1.2 0 0 1-.338 1.033 1.2 1.2 0 0 1-1.034.34H221.56a1.205 1.205 0 0 1-1.372-1.373V31.6a1.21 1.21 0 0 1 .819-1.315c.178-.058.368-.073.553-.045h5.188a1.205 1.205 0 0 1 1.373 1.36v31.394h13.626a1.203 1.203 0 0 1 1.372 1.372M267.856 31.6v4.815a1.2 1.2 0 0 1-.294 1.11 1.2 1.2 0 0 1-1.09.358h-8.354v31.298a1.2 1.2 0 0 1-.339 1.034 1.2 1.2 0 0 1-1.033.338h-5.188a1.206 1.206 0 0 1-1.315-.818 1.2 1.2 0 0 1-.046-.554V37.884h-8.366a1.203 1.203 0 0 1-1.372-1.373v-4.815a1.2 1.2 0 0 1 .339-1.033 1.2 1.2 0 0 1 1.033-.339h24.641a1.202 1.202 0 0 1 1.372 1.372m28.421 32.67v4.815a1.202 1.202 0 0 1-1.373 1.372h-21.198a1.205 1.205 0 0 1-1.372-1.372V31.6a1.21 1.21 0 0 1 .819-1.315c.178-.058.368-.073.553-.045h20.909a1.205 1.205 0 0 1 1.373 1.36v4.815a1.21 1.21 0 0 1-.786 1.422c-.189.064-.39.08-.587.046h-14.348v8.631h12.904a1.202 1.202 0 0 1 1.372 1.373v4.706a1.2 1.2 0 0 1-.344 1.025 1.2 1.2 0 0 1-1.028.335h-12.904v9.077h14.637a1.203 1.203 0 0 1 1.373 1.336"/></svg>